<?xml version="1.0" standalone="no"?><!DOCTYPE svg PUBLIC "-//W3C//DTD SVG 1.1//EN" "http://www.w3.org/Graphics/SVG/1.1/DTD/svg11.dtd"><svg t="1717575054873" class="icon" viewBox="0 0 1024 1024" version="1.1" xmlns="http://www.w3.org/2000/svg" p-id="854" xmlns:xlink="http://www.w3.org/1999/xlink" width="180" height="180"><path d="M410.822 802.159l-49.865 3.671 4.991 67.789c-0.001 0 43.391 2.765 44.874-71.46zM122.938 310.694a8 8 0 0 1 0-11.314L308.22 114.099l11.314 11.314-185.282 185.281a7.999 7.999 0 0 1-11.314 0z" fill="#FFC912" p-id="855"></path><path d="M229.024 215.923l-11.314-11.314 90.51-90.51 22.627 22.627c6.248 6.248 6.248 16.379 0 22.627l-56.569 56.569c-12.496 12.497-32.758 12.497-45.254 0.001zM903.754 323.041a8 8 0 0 1-11.314 0L726.971 157.572a8 8 0 0 1 11.314-11.314l165.469 165.469a8 8 0 0 1 0 11.314z" fill="#FFC912" p-id="856"></path><path d="M761.267 234.144c-0.854 0-1.716-0.084-2.578-0.256-2.85-0.569-5.5-2.015-7.664-4.179l-39.598-39.599c-3.905-3.905-3.905-10.237 0-14.143 3.908-3.904 10.238-3.903 14.143 0l35.355 35.356 31.112-31.113-35.355-35.354c-3.905-3.905-3.905-10.237 0-14.143 3.906-3.904 10.236-3.904 14.143 0l39.598 39.598c5.551 5.552 5.966 13.834 0.943 18.856l-41.483 41.483c-2.264 2.265-5.362 3.494-8.616 3.494z" fill="#FFC912" p-id="857"></path><path d="M856.772 279.907m-32 0a32 32 0 1 0 64 0 32 32 0 1 0-64 0Z" fill="#FFFFFF" p-id="858"></path><path d="M898.668 276.954c-1.628-23.102-21.728-40.564-44.849-38.943-11.19 0.789-21.405 5.888-28.761 14.359-7.355 8.471-10.972 19.298-10.184 30.489 1.373 19.464 15.873 34.923 34.222 38.338-1.891 28.959-24.97 52.875-54.71 54.97-19.579 1.386-38.512-7.035-50.636-22.514-3.406-4.348-9.692-5.112-14.039-1.705-4.348 3.405-5.111 9.691-1.705 14.039 15.072 19.24 38.006 30.327 62.203 30.327a79.74 79.74 0 0 0 5.583-0.196c40.672-2.867 72.06-36.208 73.398-76.097 18.212-5.639 30.874-23.25 29.478-43.067z m-40.349 24.898c-12.095 0.855-22.64-8.298-23.492-20.399a21.859 21.859 0 0 1 5.334-15.971 21.86 21.86 0 0 1 15.065-7.521 22.158 22.158 0 0 1 1.562-0.056c11.433 0 21.114 8.878 21.93 20.454 0.852 12.102-8.299 22.641-20.399 23.493z" fill="#723703" p-id="859"></path><path d="M183.954 257.822m-32 0a32 32 0 1 0 64 0 32 32 0 1 0-64 0Z" fill="#FFFFFF" p-id="860"></path><path d="M311.013 329.863c-4.346-3.405-10.633-2.643-14.038 1.706-12.124 15.478-31.053 23.902-50.636 22.514-29.74-2.095-52.82-26.011-54.71-54.971 18.347-3.416 32.85-18.874 34.222-38.336 0.788-11.191-2.828-22.02-10.184-30.49s-17.57-13.57-28.761-14.359c-11.183-0.784-22.019 2.827-30.489 10.184-8.472 7.355-13.57 17.57-14.359 28.761-1.396 19.818 11.267 37.428 29.477 43.066 1.337 39.89 32.725 73.231 73.398 76.098 1.866 0.131 3.727 0.196 5.58 0.196 24.199 0 47.135-11.088 62.206-30.329 3.406-4.349 2.643-10.635-1.706-14.04z m-149.004-73.587a21.854 21.854 0 0 1 7.521-15.065c4.038-3.506 9.097-5.39 14.392-5.39 0.524 0 1.052 0.019 1.579 0.056 12.102 0.853 21.252 11.391 20.399 23.492s-11.393 21.264-23.492 20.398c-12.101-0.852-21.251-11.39-20.399-23.491zM417.701 794.901a9.986 9.986 0 0 0-7.613-2.715l-49.865 3.671a9.986 9.986 0 0 0-8.743 6.79c-10.788-4.441-20.009-11.983-26.598-21.923-8.707-13.136-11.776-28.875-8.645-44.319 3.901-19.239 17.068-35.232 35.223-42.782 5.1-2.121 7.515-7.974 5.394-13.073-2.12-5.101-7.975-7.514-13.073-5.394-24.297 10.104-41.921 31.515-47.145 57.274-4.193 20.68-0.082 41.755 11.575 59.344 10.496 15.835 25.986 27.115 44.061 32.271l3.704 50.308a9.999 9.999 0 0 0 9.337 9.245c0.217 0.014 0.651 0.035 1.275 0.035 4.348 0 17.865-1.029 30.621-12.761 15.035-13.829 22.979-36.88 23.611-68.515a10.001 10.001 0 0 0-3.119-7.456z m-33.641 60.886c-3.084 2.93-6.213 4.767-8.962 5.919l-3.435-46.637 28.57-2.104c-1.775 19.701-7.294 34.385-16.173 42.822z" fill="#723703" p-id="861"></path><path d="M573.664 850.563l49.984-1.274 1.732 67.951c-0.001 0-42.907 7.039-51.716-66.677z" fill="#FFC912" p-id="862"></path><path d="M691.277 778.443c-5.224-25.76-22.849-47.171-47.146-57.274-5.102-2.123-10.953 0.294-13.073 5.394-2.121 5.1 0.294 10.953 5.394 13.073 18.154 7.55 31.322 23.543 35.224 42.782 3.132 15.444 0.062 31.184-8.645 44.319-7.146 10.781-17.39 18.74-29.369 22.982l-0.018-0.684a9.985 9.985 0 0 0-10.252-9.742l-49.983 1.273a10.003 10.003 0 0 0-9.675 11.183c3.755 31.417 13.938 53.571 30.267 65.847 11.215 8.431 22.233 9.832 28.318 9.832 2.51 0 4.181-0.238 4.68-0.32a10 10 0 0 0 8.378-10.123l-1.186-46.521c18.696-4.956 34.734-16.42 45.51-32.678 11.658-17.587 15.769-38.663 11.576-59.343zM606.018 901.61c-9.895-7.439-16.983-21.618-20.751-41.339l28.638-0.73 1.192 46.742c-2.731-0.838-5.876-2.266-9.079-4.673z" fill="#723703" p-id="863"></path><path d="M513.432 464.681m-321 0a321 321 0 1 0 642 0 321 321 0 1 0-642 0Z" fill="#AEE2FF" p-id="864"></path><path d="M252.432 464.681c0-167.165 127.787-304.463 291-319.593a324.77 324.77 0 0 0-30-1.407c-177.283 0-321 143.717-321 321s143.717 321 321 321a324.77 324.77 0 0 0 30-1.407c-163.214-15.131-291-152.428-291-319.593z" fill="#64D0FF" p-id="865"></path><path d="M513.432 647.847c-102.631 0-186.127-83.496-186.127-186.126 0-45.151 16.371-88.698 46.097-122.62 3.64-4.154 9.957-4.569 14.111-0.93 4.153 3.64 4.57 9.957 0.93 14.111-26.528 30.272-41.138 69.139-41.138 109.438 0 91.603 74.524 166.126 166.127 166.126s166.126-74.523 166.126-166.126c0-38.161-13.259-75.429-37.334-104.939-3.491-4.279-2.852-10.579 1.428-14.07 4.28-3.49 10.578-2.851 14.07 1.428 26.979 33.069 41.836 74.828 41.836 117.582 0 102.629-83.496 186.126-186.126 186.126z" fill="#FC7070" p-id="866"></path><path d="M430.952 168.024m-60 0a60 60 0 1 0 120 0 60 60 0 1 0-120 0Z" fill="#FFFFFF" p-id="867"></path><path d="M430.952 238.024c-38.598 0-70-31.402-70-70s31.402-70 70-70 70 31.402 70 70-31.403 70-70 70z m0-120c-27.57 0-50 22.43-50 50s22.43 50 50 50 50-22.43 50-50-22.43-50-50-50z" fill="#723703" p-id="868"></path><path d="M430.952 168.024m-16 0a16 16 0 1 0 32 0 16 16 0 1 0-32 0Z" fill="#723703" p-id="869"></path><path d="M595.912 168.024m-60 0a60 60 0 1 0 120 0 60 60 0 1 0-120 0Z" fill="#FFFFFF" p-id="870"></path><path d="M595.912 238.024c-38.598 0-70-31.402-70-70s31.402-70 70-70 70 31.402 70 70-31.403 70-70 70z m0-120c-27.57 0-50 22.43-50 50s22.43 50 50 50 50-22.43 50-50-22.43-50-50-50z" fill="#723703" p-id="871"></path><path d="M595.912 168.024m-16 0a16 16 0 1 0 32 0 16 16 0 1 0-32 0Z" fill="#723703" p-id="872"></path><path d="M782.305 370.245a8.004 8.004 0 0 1-7.582-5.451c-14.714-43.747-38.985-64.906-39.229-65.114a8 8 0 0 1 10.412-12.15c1.13 0.97 27.877 24.281 43.983 72.163a8.002 8.002 0 0 1-7.584 10.552z" fill="#FFFFFF" p-id="873"></path><path d="M794.725 435.9a8 8 0 0 1-7.997-8.4c0.905-18.104-3.56-31.95-3.604-32.088-1.376-4.191 0.897-8.714 5.085-10.1a7.993 7.993 0 0 1 10.1 5.057c0.224 0.671 5.463 16.672 4.4 37.93a8.002 8.002 0 0 1-7.984 7.601z" fill="#FFFFFF" p-id="874"></path></svg>