<?xml version="1.0" encoding="utf-8"?>
<!DOCTYPE svg PUBLIC "-//W3C//DTD SVG 20010904//EN" "http://www.w3.org/TR/2001/REC-SVG-20010904/DTD/svg10.dtd">
<svg version="1.0" xmlns="http://www.w3.org/2000/svg" width="576pt" height="436pt" viewBox="0 0 576 436" style="" preserveAspectRatio="xMidYMid meet">
<g fill="#3C2210FE" stroke="#3C2210FE">
<path d="M 274.907 87.419 C 274.409 87.923 269.185 88.646 263.000 89.066 C 262.175 89.122 260.825 89.415 260.000 89.716 C 259.175 90.018 257.425 90.406 256.110 90.579 C 254.796 90.752 252.996 91.202 252.110 91.579 C 251.225 91.956 249.545 92.393 248.377 92.550 C 242.270 93.373 216.000 106.740 216.000 109.024 C 216.000 109.561 215.365 110.000 214.588 110.000 C 213.370 110.000 199.955 122.614 194.913 128.500 C 189.844 134.418 179.634 152.300 180.710 153.376 C 181.053 153.719 180.856 154.000 180.272 154.000 C 178.365 154.000 172.066 176.316 170.958 187.000 C 170.626 190.203 170.636 212.405 170.972 217.000 C 171.691 226.841 179.191 253.000 181.293 253.000 C 181.865 253.000 182.053 253.281 181.710 253.624 C 181.012 254.322 184.737 262.158 186.220 263.112 C 186.743 263.448 187.020 264.003 186.835 264.343 C 186.399 265.150 196.020 279.672 199.395 283.302 C 200.828 284.842 202.000 286.331 202.000 286.611 C 202.000 287.383 214.099 303.343 215.645 304.610 C 216.390 305.221 217.000 306.038 217.000 306.427 C 217.000 307.326 222.251 314.390 223.250 314.833 C 223.663 315.017 224.000 315.767 224.000 316.500 C 224.000 317.233 224.338 317.983 224.750 318.167 C 225.700 318.589 230.053 326.314 234.800 336.000 L 238.476 343.500 239.061 365.500 C 239.620 386.547 240.986 397.000 243.178 397.000 C 243.695 397.000 243.892 397.365 243.616 397.812 C 242.693 399.305 249.208 409.338 254.604 414.734 C 258.083 418.213 262.647 421.363 267.720 423.785 C 275.245 427.378 275.862 427.500 286.553 427.500 C 297.333 427.500 297.796 427.406 305.282 423.706 C 309.508 421.617 315.151 417.775 317.840 415.156 C 322.850 410.276 328.333 402.490 328.333 400.256 C 328.333 399.565 328.649 399.000 329.035 399.000 C 329.421 399.000 330.560 396.188 331.566 392.750 C 332.980 387.917 333.520 381.627 333.947 365.000 L 334.500 343.500 338.598 335.000 C 340.852 330.325 346.139 321.357 350.348 315.072 C 354.557 308.786 358.000 303.322 358.000 302.929 C 358.000 302.536 358.675 301.955 359.500 301.638 C 360.325 301.322 361.000 300.374 361.000 299.531 C 361.000 298.689 361.361 298.000 361.802 298.000 C 363.849 298.000 388.227 263.259 389.168 259.000 C 389.351 258.175 389.798 257.273 390.163 256.995 C 391.251 256.166 396.766 241.693 398.402 235.373 C 401.335 224.043 402.418 214.919 402.425 201.500 C 402.431 190.117 401.431 178.507 400.286 176.654 C 399.925 176.069 399.497 174.388 399.336 172.918 C 399.175 171.448 398.515 168.952 397.869 167.373 C 397.223 165.793 396.539 163.702 396.350 162.726 C 395.765 159.716 390.831 148.535 389.802 147.888 C 389.267 147.552 388.900 146.971 388.987 146.597 C 389.626 143.848 374.313 123.015 367.257 117.036 C 365.191 115.285 362.074 112.631 360.331 111.138 C 358.588 109.646 355.888 107.767 354.331 106.962 C 352.774 106.158 350.886 104.918 350.135 104.206 C 348.446 102.605 337.000 96.769 337.000 97.509 C 337.000 97.804 335.875 97.309 334.500 96.408 C 333.125 95.507 332.000 95.102 332.000 95.507 C 332.000 95.913 331.368 95.720 330.595 95.079 C 328.969 93.730 315.850 89.817 315.184 90.483 C 314.938 90.728 313.974 90.521 313.041 90.022 C 312.108 89.523 308.905 88.814 305.923 88.447 C 297.932 87.464 275.594 86.724 274.907 87.419 M 296.000 98.024 C 293.739 98.771 293.835 98.844 297.000 98.795 C 298.925 98.764 301.400 99.066 302.500 99.464 C 304.103 100.045 304.202 99.975 303.000 99.110 C 301.748 98.209 301.862 98.028 303.691 98.015 C 304.896 98.007 306.161 98.452 306.502 99.004 C 306.843 99.556 308.332 99.744 309.811 99.423 C 311.990 98.949 312.216 99.059 311.000 100.003 C 309.801 100.935 310.159 101.055 312.788 100.602 C 315.229 100.181 316.232 100.441 316.682 101.614 C 317.121 102.758 318.088 103.032 320.194 102.611 C 321.794 102.291 322.852 102.431 322.548 102.922 C 322.245 103.412 322.968 103.560 324.155 103.249 C 325.726 102.838 326.100 103.029 325.531 103.950 C 324.955 104.881 325.309 105.037 326.875 104.540 C 328.113 104.147 329.000 104.300 329.000 104.907 C 329.000 105.480 330.400 106.672 332.110 107.557 C 333.821 108.441 334.919 108.678 334.551 108.083 C 334.183 107.487 334.359 107.000 334.941 107.000 C 335.523 107.000 336.000 107.477 336.000 108.059 C 336.000 108.641 336.403 108.869 336.895 108.565 C 337.388 108.260 338.172 108.796 338.639 109.756 C 339.105 110.715 339.360 110.886 339.205 110.135 C 339.050 109.384 340.325 110.171 342.038 111.885 C 343.752 113.598 345.655 115.000 346.268 115.000 C 346.881 115.000 346.509 114.300 345.441 113.445 C 343.575 111.950 343.587 111.932 345.740 112.975 C 346.972 113.571 347.872 114.609 347.740 115.280 C 347.608 115.951 348.175 116.561 349.000 116.635 C 351.249 116.837 352.164 117.232 350.750 117.390 C 349.750 117.503 349.750 117.689 350.750 118.324 C 351.438 118.761 352.390 118.877 352.866 118.583 C 353.343 118.288 354.580 119.049 355.616 120.274 L 357.500 122.500 355.000 120.507 L 352.500 118.514 354.924 121.257 C 356.258 122.766 357.897 124.000 358.567 124.000 C 359.238 124.000 360.133 124.788 360.557 125.750 C 361.013 126.786 361.413 126.990 361.539 126.250 C 361.754 124.975 362.150 125.282 362.375 126.897 C 362.444 127.391 364.075 129.650 366.000 131.919 C 367.925 134.188 369.050 135.147 368.500 134.051 C 367.596 132.249 367.643 132.212 368.985 133.664 C 369.802 134.548 370.477 135.996 370.485 136.883 C 370.493 137.769 371.175 138.516 372.000 138.543 C 372.825 138.569 373.379 139.158 373.232 139.850 C 372.939 141.224 375.602 145.500 376.750 145.500 C 377.141 145.500 377.514 145.950 377.579 146.500 C 377.643 147.050 377.764 148.039 377.848 148.698 C 377.931 149.358 379.168 151.158 380.596 152.698 C 382.266 154.500 382.712 155.531 381.846 155.586 C 380.937 155.645 381.033 155.909 382.139 156.401 C 383.192 156.868 383.608 157.912 383.303 159.315 C 382.918 161.082 383.032 161.213 383.898 160.000 C 384.807 158.728 384.989 158.804 385.100 160.500 C 385.172 161.600 385.150 163.291 385.051 164.257 C 384.953 165.223 385.576 166.284 386.436 166.614 C 387.296 166.944 388.000 167.642 388.000 168.166 C 388.000 168.690 387.556 168.844 387.013 168.508 C 386.374 168.113 386.352 168.708 386.950 170.199 C 387.514 171.605 387.931 171.916 388.023 171.000 C 388.105 170.175 388.560 170.797 389.035 172.382 C 389.509 173.966 389.654 176.480 389.356 177.968 C 389.005 179.726 389.386 181.243 390.447 182.304 C 391.725 183.582 391.944 185.076 391.461 189.217 C 391.010 193.084 391.129 194.098 391.907 193.000 C 392.681 191.907 392.941 194.484 392.866 202.500 C 392.793 210.331 392.520 212.636 391.919 210.500 C 391.305 208.319 391.179 209.257 391.459 213.932 C 391.716 218.239 391.528 219.891 390.888 218.932 C 390.246 217.970 390.128 218.927 390.529 221.848 C 390.966 225.031 390.812 226.002 389.956 225.473 C 389.108 224.949 388.975 225.611 389.473 227.875 C 389.901 229.824 389.764 231.000 389.111 231.000 C 388.534 231.000 388.350 231.749 388.701 232.664 C 389.099 233.700 388.942 234.082 388.284 233.675 C 387.703 233.316 386.993 233.918 386.707 235.013 C 386.359 236.345 386.569 236.774 387.343 236.309 C 388.105 235.853 388.076 236.140 387.259 237.150 C 386.576 237.994 386.313 238.980 386.675 239.342 C 387.037 239.704 386.789 240.000 386.123 240.000 C 385.457 240.000 384.985 240.563 385.075 241.250 C 385.164 241.938 385.177 243.400 385.103 244.500 C 384.990 246.197 384.807 246.272 383.898 245.000 C 383.032 243.787 382.918 243.918 383.303 245.685 C 383.593 247.016 383.217 248.086 382.343 248.422 C 381.553 248.725 380.981 249.542 381.072 250.237 C 381.412 252.837 380.967 254.097 379.933 253.459 C 379.346 253.096 378.950 253.407 379.052 254.150 C 379.411 256.767 378.989 258.111 378.000 257.500 C 377.450 257.160 376.931 257.471 376.848 258.191 C 376.359 262.387 375.023 265.132 373.828 264.394 C 373.299 264.067 373.009 264.622 373.183 265.627 C 373.357 266.633 372.921 267.465 372.214 267.478 C 371.506 267.490 370.510 268.175 370.000 269.000 C 369.401 269.969 369.444 270.500 370.120 270.500 C 370.696 270.500 369.766 271.536 368.052 272.803 C 366.339 274.070 365.061 275.648 365.213 276.309 C 365.365 276.970 363.531 279.534 361.137 282.006 C 358.744 284.477 357.519 286.275 358.416 286.000 C 359.313 285.725 358.449 286.770 356.496 288.322 C 354.543 289.874 353.067 291.674 353.215 292.322 C 353.364 292.970 351.570 295.473 349.230 297.884 C 346.889 300.295 345.092 302.985 345.237 303.862 C 345.382 304.738 344.825 305.475 344.000 305.500 C 343.163 305.525 342.625 306.286 342.782 307.220 C 342.937 308.142 342.037 309.466 340.782 310.162 C 339.312 310.978 339.034 311.451 340.000 311.491 C 341.083 311.535 340.944 311.884 339.500 312.746 C 338.400 313.402 337.838 314.009 338.250 314.095 C 338.663 314.180 338.438 314.307 337.750 314.378 C 337.063 314.448 336.439 315.179 336.365 316.003 C 336.291 316.826 336.179 317.298 336.115 317.050 C 336.052 316.803 335.460 317.140 334.800 317.800 C 333.867 318.733 333.922 319.007 335.050 319.030 C 336.121 319.053 336.036 319.331 334.729 320.092 C 333.755 320.659 333.190 321.498 333.473 321.957 C 333.757 322.415 333.269 323.066 332.391 323.404 C 331.450 323.764 331.036 324.652 331.385 325.560 C 331.771 326.567 331.574 326.855 330.819 326.388 C 330.047 325.911 329.872 326.223 330.294 327.324 C 330.685 328.343 330.463 328.885 329.714 328.738 C 329.046 328.607 328.487 329.509 328.472 330.742 C 328.456 331.975 328.006 333.045 327.472 333.119 C 326.937 333.194 326.050 333.419 325.500 333.620 C 324.950 333.821 306.617 334.101 284.761 334.243 C 253.903 334.443 244.915 334.223 244.547 333.262 C 244.286 332.581 244.581 332.131 245.203 332.262 C 245.825 332.393 245.358 331.488 244.167 330.250 C 242.975 329.013 242.257 328.000 242.571 328.000 C 242.886 328.000 242.410 327.267 241.514 326.371 C 240.618 325.475 240.117 324.137 240.401 323.398 C 240.684 322.659 239.935 321.367 238.736 320.527 C 237.536 319.687 236.993 318.986 237.527 318.970 C 238.062 318.953 237.731 318.491 236.792 317.943 C 235.749 317.335 235.328 316.309 235.711 315.310 C 236.132 314.214 235.953 313.911 235.170 314.395 C 234.468 314.829 234.000 314.495 234.000 313.559 C 234.000 312.702 233.550 312.000 233.000 312.000 C 232.450 312.000 232.000 311.373 232.000 310.607 C 232.000 309.841 231.296 308.944 230.437 308.614 C 229.577 308.284 229.130 307.599 229.443 307.092 C 229.756 306.586 229.449 305.983 228.760 305.753 C 228.072 305.524 227.507 304.473 227.504 303.418 C 227.502 302.363 226.938 301.613 226.250 301.750 C 225.563 301.888 225.000 301.175 225.000 300.167 C 225.000 298.029 223.542 296.191 223.414 298.167 C 223.366 298.900 222.944 298.600 222.476 297.500 C 222.007 296.400 220.921 294.904 220.062 294.176 C 219.014 293.287 218.968 293.095 219.923 293.592 C 221.087 294.197 221.071 293.939 219.833 292.172 C 219.001 290.984 218.034 290.299 217.684 290.649 C 217.334 291.000 216.733 290.434 216.349 289.393 C 215.965 288.352 215.054 287.140 214.325 286.700 C 213.596 286.260 213.000 285.296 213.000 284.557 C 213.000 283.818 212.296 282.944 211.437 282.614 C 210.577 282.284 210.123 281.610 210.428 281.116 C 210.733 280.623 209.813 279.382 208.383 278.359 C 206.954 277.337 206.556 276.725 207.500 277.000 C 208.444 277.275 208.042 276.661 206.608 275.635 C 205.174 274.609 204.000 272.932 204.000 271.908 C 204.000 270.884 202.879 269.312 201.509 268.414 C 200.138 267.516 199.265 266.380 199.568 265.891 C 199.870 265.401 199.641 265.000 199.059 265.000 C 198.477 265.000 198.000 264.325 198.000 263.500 C 198.000 262.675 197.523 262.000 196.941 262.000 C 196.359 262.000 196.131 261.597 196.435 261.105 C 196.740 260.612 196.288 259.941 195.431 259.612 C 194.574 259.283 194.153 258.561 194.496 258.007 C 194.838 257.453 194.615 257.000 194.000 257.000 C 193.385 257.000 193.160 256.550 193.500 256.000 C 193.840 255.450 193.615 255.000 193.000 255.000 C 192.385 255.000 192.202 254.482 192.594 253.848 C 192.985 253.215 192.537 252.135 191.598 251.448 C 190.659 250.761 189.820 249.255 189.733 248.100 C 189.646 246.945 189.194 246.000 188.728 246.000 C 188.263 246.000 188.160 245.550 188.500 245.000 C 188.840 244.450 188.593 244.000 187.952 244.000 C 187.311 244.000 187.045 243.325 187.362 242.500 C 187.678 241.675 187.471 241.000 186.901 241.000 C 186.300 241.000 186.148 240.108 186.540 238.875 C 187.040 237.300 186.883 236.954 185.937 237.539 C 185.029 238.100 184.845 237.847 185.299 236.664 C 185.650 235.749 185.471 235.000 184.901 235.000 C 184.320 235.000 184.144 234.121 184.500 233.000 C 184.880 231.802 184.680 231.000 184.000 231.000 C 183.337 231.000 183.118 230.204 183.473 229.084 C 183.808 228.030 183.628 226.888 183.073 226.545 C 182.519 226.203 182.314 224.477 182.617 222.711 C 183.055 220.161 182.933 219.809 182.024 221.000 C 181.120 222.184 181.012 221.821 181.513 219.274 C 181.863 217.500 181.790 215.475 181.352 214.774 C 180.286 213.068 180.224 189.980 181.283 189.325 C 181.742 189.041 181.818 187.446 181.452 185.780 C 180.946 183.478 181.090 182.938 182.049 183.530 C 183.007 184.122 183.162 183.558 182.689 181.194 C 182.335 179.427 182.514 177.800 183.101 177.438 C 183.670 177.086 183.900 176.183 183.612 175.431 C 183.323 174.679 183.498 173.810 184.000 173.500 C 184.502 173.190 184.677 172.321 184.388 171.569 C 184.100 170.817 184.352 169.901 184.948 169.532 C 185.545 169.163 185.774 168.443 185.457 167.931 C 185.141 167.419 185.407 167.000 186.048 167.000 C 186.689 167.000 186.955 166.325 186.638 165.500 C 186.322 164.675 186.485 164.000 187.000 164.000 C 187.515 164.000 187.678 163.325 187.362 162.500 C 187.045 161.675 187.311 161.000 187.952 161.000 C 188.593 161.000 188.869 160.597 188.565 160.105 C 188.260 159.612 188.649 158.965 189.428 158.666 C 190.252 158.350 190.634 157.318 190.342 156.199 C 190.033 155.018 190.448 154.042 191.419 153.669 C 192.289 153.336 193.000 152.122 193.000 150.972 C 193.000 149.823 193.450 149.160 194.000 149.500 C 194.949 150.086 195.168 149.656 195.400 146.750 C 195.455 146.063 196.311 144.824 197.302 143.999 C 198.293 143.173 199.208 141.792 199.334 140.929 C 199.461 140.067 201.037 138.042 202.837 136.431 C 204.637 134.819 206.224 132.710 206.364 131.744 C 206.673 129.614 213.009 122.888 214.082 123.551 C 214.503 123.811 215.816 122.663 217.000 121.000 C 218.184 119.337 219.572 118.235 220.084 118.552 C 220.595 118.868 221.284 118.423 221.614 117.563 C 221.944 116.704 222.841 116.000 223.607 116.000 C 224.373 116.000 225.000 115.550 225.000 115.000 C 225.000 114.450 225.884 114.000 226.965 114.000 C 228.045 114.000 229.418 113.087 230.015 111.972 C 230.612 110.857 231.528 110.208 232.050 110.531 C 232.573 110.854 233.000 110.615 233.000 110.000 C 233.000 109.385 233.450 109.160 234.000 109.500 C 234.550 109.840 235.000 109.656 235.000 109.090 C 235.000 108.525 235.671 108.320 236.492 108.635 C 237.355 108.966 238.252 108.508 238.621 107.546 C 238.971 106.633 239.875 106.122 240.629 106.411 C 241.383 106.700 242.000 106.475 242.000 105.910 C 242.000 105.344 242.450 105.160 243.000 105.500 C 243.550 105.840 244.000 105.593 244.000 104.952 C 244.000 104.311 244.675 104.045 245.500 104.362 C 246.325 104.678 247.000 104.475 247.000 103.910 C 247.000 103.344 247.419 103.141 247.931 103.457 C 248.443 103.774 249.132 103.595 249.463 103.060 C 249.794 102.525 250.725 102.341 251.532 102.651 C 252.339 102.960 253.000 102.668 253.000 102.000 C 253.000 101.332 253.661 101.040 254.468 101.349 C 255.275 101.659 256.203 101.481 256.529 100.953 C 256.856 100.425 258.287 100.285 259.710 100.642 C 261.675 101.135 262.106 100.981 261.500 100.000 C 260.894 99.019 261.325 98.865 263.290 99.358 C 264.753 99.725 266.163 99.546 266.534 98.945 C 266.904 98.346 268.415 98.152 270.000 98.500 C 271.581 98.847 273.096 98.654 273.464 98.059 C 273.872 97.398 278.704 97.038 286.309 97.100 C 294.194 97.164 297.617 97.491 296.000 98.024 M 323.500 363.500 C 323.500 384.393 323.231 386.478 319.423 395.079 C 315.861 403.125 307.962 411.212 300.192 414.770 C 294.041 417.586 281.259 418.732 277.623 416.794 C 276.272 416.074 275.522 416.155 274.948 417.083 C 274.351 418.050 273.398 417.636 271.152 415.437 C 269.503 413.822 266.522 411.199 264.528 409.609 C 259.014 405.212 254.109 398.735 251.818 392.825 C 250.062 388.297 249.679 384.548 249.260 367.774 C 248.989 356.925 249.033 347.357 249.357 346.512 C 249.875 345.162 254.407 345.007 286.723 345.238 L 323.500 345.500 323.500 363.500 "/></g>
<g fill="#FECA02FE" stroke="#FECA02FE">
<path d="M 256.502 102.081 C 246.060 105.080 232.595 111.107 225.221 116.083 C 222.844 117.688 220.726 119.000 220.513 119.000 C 220.300 119.000 217.018 122.053 213.220 125.784 C 197.143 141.576 186.196 162.020 182.851 182.500 C 181.543 190.508 181.631 214.012 182.997 221.500 C 183.599 224.800 184.367 229.075 184.704 231.000 C 185.041 232.925 185.867 235.400 186.540 236.500 C 187.212 237.600 188.068 239.814 188.443 241.420 C 189.710 246.855 199.040 264.203 204.786 271.807 C 207.929 275.965 211.175 280.383 212.000 281.623 C 212.825 282.863 216.844 288.293 220.932 293.689 C 231.152 307.181 233.000 309.761 233.000 310.539 C 233.000 310.909 234.298 312.852 235.885 314.856 C 237.472 316.860 240.502 322.001 242.619 326.280 L 246.468 334.059 286.081 333.966 L 325.694 333.872 330.508 325.186 C 333.155 320.409 337.274 313.690 339.661 310.255 C 342.047 306.820 344.000 303.818 344.000 303.584 C 344.000 303.351 347.488 298.557 351.750 292.931 C 356.013 287.305 361.037 280.632 362.916 278.101 C 364.795 275.570 366.707 273.350 367.166 273.167 C 367.625 272.983 368.000 272.394 368.000 271.858 C 368.000 271.322 369.302 269.222 370.894 267.191 C 375.916 260.787 381.304 249.790 385.687 237.000 C 392.583 216.877 392.545 188.183 385.595 167.500 C 382.946 159.620 375.397 144.729 371.269 139.241 C 359.810 124.010 343.008 111.496 325.500 105.153 C 313.670 100.867 306.412 99.817 286.500 99.515 C 267.015 99.218 266.242 99.284 256.502 102.081 M 284.160 151.566 C 286.172 152.271 288.107 152.560 288.458 152.209 C 288.809 151.857 291.213 151.018 293.798 150.344 C 302.637 148.040 310.726 150.725 317.683 158.271 C 322.813 163.838 323.636 165.387 324.493 171.104 C 325.159 175.545 325.376 175.788 330.620 177.961 C 338.421 181.195 343.493 186.784 346.171 195.098 C 348.077 201.017 348.214 202.518 347.225 206.699 C 346.211 210.989 346.301 211.766 348.073 214.000 C 352.075 219.048 353.363 223.277 353.402 231.500 C 353.445 240.920 351.686 245.366 345.563 251.309 C 341.960 254.805 341.533 255.737 341.389 260.431 C 341.300 263.306 340.438 267.198 339.474 269.079 C 337.735 272.469 328.371 282.089 327.140 281.751 C 326.788 281.654 325.506 282.127 324.291 282.801 C 323.076 283.475 320.249 284.149 318.008 284.299 C 314.639 284.525 313.669 285.084 312.398 287.534 C 310.319 291.541 308.295 293.659 303.367 296.985 C 298.255 300.435 295.705 301.026 285.500 301.125 C 279.486 301.183 276.321 300.690 272.750 299.137 C 270.138 298.001 268.000 296.635 268.000 296.103 C 268.000 295.570 267.128 294.858 266.062 294.520 C 264.995 294.181 262.897 291.966 261.398 289.596 C 258.856 285.578 258.183 285.173 251.396 283.573 C 243.117 281.621 236.181 276.508 234.047 270.784 C 233.373 268.978 232.136 266.218 231.296 264.651 C 230.315 262.819 229.978 260.524 230.352 258.219 C 230.875 254.998 230.556 254.311 227.208 251.446 C 217.301 242.966 215.587 226.849 223.389 215.544 C 225.040 213.152 225.439 210.958 225.478 204.044 C 225.531 194.853 227.011 190.705 232.614 184.047 C 235.113 181.077 239.462 178.454 241.250 178.839 C 241.663 178.927 242.000 178.581 242.000 178.070 C 242.000 177.558 243.013 176.995 244.250 176.820 C 245.935 176.580 246.855 175.369 247.913 172.000 C 251.827 159.535 257.417 153.040 265.867 151.141 C 268.226 150.611 270.435 149.898 270.776 149.557 C 271.586 148.747 279.503 149.935 284.160 151.566 M 243.274 119.147 C 252.264 123.958 251.843 137.201 242.286 150.183 C 236.298 158.317 228.553 163.260 220.932 163.811 C 213.817 164.326 210.578 162.627 208.305 157.187 C 206.435 152.712 207.038 146.364 209.955 139.807 C 212.376 134.367 220.530 125.072 225.667 121.896 C 231.527 118.275 239.360 117.052 243.274 119.147 M 243.988 160.977 C 245.394 163.604 243.060 169.259 239.648 171.495 C 236.433 173.601 231.638 173.135 231.170 170.671 C 229.749 163.185 240.727 154.884 243.988 160.977 "/></g>
<g fill="#3C2210FE" stroke="#3C2210FE">
<path d="M 268.374 151.206 C 268.133 151.595 267.275 151.659 266.468 151.349 C 265.661 151.040 265.000 151.311 265.000 151.952 C 265.000 152.593 264.550 152.840 264.000 152.500 C 263.450 152.160 263.000 152.385 263.000 153.000 C 263.000 153.615 262.550 153.840 262.000 153.500 C 261.450 153.160 261.000 153.359 261.000 153.941 C 261.000 154.523 260.598 155.000 260.106 155.000 C 258.788 155.000 253.000 160.621 253.000 161.901 C 253.000 162.506 252.523 163.000 251.941 163.000 C 251.359 163.000 251.160 163.450 251.500 164.000 C 251.840 164.550 251.615 165.000 251.000 165.000 C 250.385 165.000 250.141 165.419 250.457 165.931 C 250.774 166.443 250.568 167.149 250.000 167.500 C 249.432 167.851 249.238 168.577 249.570 169.113 C 249.901 169.649 249.678 170.683 249.074 171.411 C 248.470 172.138 248.094 173.806 248.238 175.117 C 248.406 176.641 247.960 177.549 247.000 177.635 C 246.175 177.709 245.163 177.877 244.750 178.010 C 244.338 178.142 243.550 178.363 243.000 178.500 C 242.450 178.638 241.663 178.860 241.250 178.993 C 240.838 179.127 240.150 179.179 239.722 179.109 C 239.294 179.039 238.685 179.658 238.367 180.485 C 238.050 181.312 237.442 181.773 237.016 181.510 C 235.937 180.843 230.907 186.040 231.579 187.128 C 231.880 187.615 231.426 188.283 230.569 188.612 C 229.712 188.941 229.231 189.565 229.500 190.000 C 229.769 190.435 229.285 191.060 228.425 191.390 C 227.416 191.778 227.078 192.671 227.472 193.911 C 227.807 194.967 227.726 196.051 227.291 196.320 C 226.292 196.937 226.491 207.857 227.547 210.410 C 228.148 211.863 227.638 212.879 225.418 214.655 C 223.813 215.939 222.924 216.992 223.441 216.995 C 223.959 216.998 223.553 217.607 222.538 218.348 C 221.524 219.090 221.015 220.215 221.406 220.848 C 221.798 221.482 221.615 222.000 221.000 222.000 C 220.385 222.000 220.160 222.450 220.500 223.000 C 220.840 223.550 220.793 224.526 220.396 225.168 C 219.312 226.923 219.217 237.000 220.285 237.000 C 220.796 237.000 220.960 237.661 220.651 238.468 C 220.341 239.275 220.630 240.281 221.294 240.703 C 222.162 241.254 222.079 241.474 221.000 241.485 C 219.928 241.496 220.213 242.213 222.000 244.000 C 223.375 245.375 224.510 246.725 224.523 247.000 C 224.573 248.079 229.797 253.000 230.892 253.000 C 231.698 253.000 231.879 254.538 231.484 258.000 C 231.097 261.381 231.277 263.000 232.039 263.000 C 232.659 263.000 232.975 263.563 232.741 264.250 C 232.506 264.938 233.376 267.190 234.673 269.255 C 235.970 271.321 236.518 272.896 235.889 272.755 C 235.260 272.615 235.846 273.400 237.190 274.500 C 238.534 275.600 239.721 276.950 239.828 277.500 C 239.935 278.050 240.768 278.502 241.679 278.504 C 242.591 278.507 243.524 279.072 243.753 279.760 C 243.983 280.449 244.582 280.758 245.085 280.447 C 245.588 280.136 246.000 280.359 246.000 280.941 C 246.000 281.523 246.338 281.947 246.750 281.882 C 247.163 281.816 247.725 281.851 248.000 281.958 C 249.271 282.453 252.704 283.201 254.685 283.413 C 255.887 283.542 257.503 284.173 258.277 284.815 C 259.051 285.457 260.004 285.663 260.395 285.272 C 260.786 284.881 260.834 285.268 260.503 286.133 C 260.116 287.140 260.853 288.385 262.558 289.602 C 264.020 290.646 264.494 291.275 263.612 291.000 C 262.408 290.624 262.505 290.974 264.004 292.405 C 265.102 293.453 266.015 293.903 266.033 293.405 C 266.052 292.907 266.896 293.493 267.909 294.707 C 268.923 295.922 270.033 296.634 270.376 296.291 C 270.719 295.948 271.000 296.218 271.000 296.892 C 271.000 297.566 271.414 297.862 271.919 297.550 C 272.425 297.237 273.547 297.689 274.412 298.555 C 275.277 299.420 276.458 299.835 277.036 299.478 C 277.614 299.120 278.630 299.259 279.294 299.787 C 280.995 301.140 294.000 301.201 294.000 299.856 C 294.000 299.268 294.661 299.040 295.468 299.349 C 296.275 299.659 297.206 299.475 297.537 298.940 C 297.868 298.405 298.557 298.226 299.069 298.543 C 299.581 298.859 300.000 298.615 300.000 298.000 C 300.000 297.385 300.403 297.131 300.895 297.435 C 301.388 297.740 302.059 297.288 302.388 296.431 C 302.717 295.574 303.439 295.153 303.993 295.496 C 304.547 295.838 305.000 295.615 305.000 295.000 C 305.000 294.385 305.520 294.203 306.155 294.595 C 306.825 295.010 307.039 294.872 306.666 294.268 C 306.312 293.695 306.692 292.671 307.511 291.991 C 308.330 291.311 309.003 291.148 309.007 291.628 C 309.010 292.107 309.910 291.150 311.006 289.500 C 312.101 287.850 312.788 285.938 312.530 285.250 C 312.093 284.082 314.487 283.490 317.824 283.942 C 318.552 284.041 319.770 283.606 320.530 282.975 C 321.290 282.344 322.382 282.118 322.956 282.473 C 323.530 282.828 324.000 282.566 324.000 281.892 C 324.000 281.218 324.301 280.968 324.669 281.336 C 325.037 281.703 326.162 281.259 327.169 280.347 C 328.176 279.436 329.000 278.932 329.000 279.227 C 329.000 279.523 330.894 277.905 333.208 275.632 C 335.522 273.360 337.322 271.163 337.208 270.750 C 337.094 270.338 337.354 270.000 337.787 270.000 C 338.220 270.000 338.648 269.028 338.737 267.840 C 338.827 266.652 339.298 265.414 339.785 265.090 C 340.272 264.765 340.676 262.144 340.683 259.264 C 340.690 256.385 340.989 254.322 341.348 254.681 C 341.706 255.040 342.000 254.638 342.000 253.789 C 342.000 252.940 342.761 251.627 343.692 250.872 C 345.151 249.689 345.262 249.706 344.500 251.000 C 343.738 252.294 343.849 252.311 345.308 251.128 C 346.239 250.373 347.000 249.183 347.000 248.485 C 347.000 247.786 347.704 246.944 348.563 246.614 C 349.423 246.284 349.847 245.561 349.504 245.007 C 349.162 244.453 349.385 244.000 350.000 244.000 C 350.615 244.000 350.840 243.550 350.500 243.000 C 350.160 242.450 350.344 242.000 350.910 242.000 C 351.475 242.000 351.678 241.325 351.362 240.500 C 351.045 239.675 351.237 239.000 351.787 239.000 C 352.740 239.000 352.980 237.643 353.025 232.000 C 353.043 229.620 352.388 224.065 351.963 223.000 C 351.853 222.725 351.816 222.163 351.882 221.750 C 351.947 221.338 351.523 221.000 350.941 221.000 C 350.359 221.000 350.160 220.550 350.500 220.000 C 350.840 219.450 350.615 219.000 350.000 219.000 C 349.385 219.000 349.131 218.597 349.435 218.105 C 349.740 217.612 349.252 216.927 348.351 216.581 C 347.451 216.236 346.985 215.681 347.317 215.350 C 347.649 215.018 347.245 213.440 346.419 211.844 C 345.594 210.247 345.248 208.407 345.652 207.755 C 346.700 206.059 346.906 198.060 345.917 197.449 C 345.461 197.167 345.341 196.275 345.651 195.468 C 345.960 194.661 345.730 194.000 345.138 194.000 C 344.547 194.000 344.324 193.319 344.643 192.487 C 345.014 191.521 343.646 189.517 340.862 186.948 C 338.463 184.733 336.613 182.489 336.750 181.961 C 336.979 181.081 335.609 180.588 333.750 180.882 C 333.338 180.947 333.000 180.523 333.000 179.941 C 333.000 179.359 332.550 179.160 332.000 179.500 C 331.450 179.840 331.000 179.615 331.000 179.000 C 331.000 178.385 330.581 178.141 330.069 178.457 C 329.557 178.774 328.844 178.557 328.485 177.976 C 328.126 177.394 326.857 177.191 325.666 177.525 C 324.167 177.944 323.911 177.846 324.834 177.205 C 325.904 176.461 325.831 176.149 324.462 175.624 C 323.173 175.129 322.902 174.241 323.353 171.985 C 323.710 170.199 323.531 169.000 322.908 169.000 C 322.319 169.000 322.143 168.126 322.502 166.995 C 322.924 165.664 322.612 164.788 321.575 164.390 C 320.715 164.060 320.230 163.437 320.497 163.005 C 320.764 162.572 319.847 161.475 318.460 160.565 C 317.072 159.656 316.202 158.482 316.527 157.956 C 316.852 157.430 316.439 157.000 315.609 157.000 C 314.779 157.000 313.699 156.285 313.210 155.410 C 312.721 154.536 312.136 153.890 311.910 153.975 C 310.714 154.425 308.104 152.640 308.655 151.749 C 309.074 151.071 308.376 150.940 306.649 151.373 C 305.192 151.739 304.000 151.649 304.000 151.174 C 304.000 150.178 294.929 150.308 293.280 151.327 C 292.675 151.701 291.469 151.733 290.599 151.399 C 289.647 151.034 288.772 151.431 288.401 152.396 C 288.063 153.278 287.047 153.993 286.143 153.985 C 284.708 153.971 284.690 153.834 286.000 152.904 C 287.155 152.083 286.868 151.976 284.750 152.438 C 283.201 152.776 282.000 152.607 282.000 152.050 C 282.000 151.507 281.325 151.322 280.500 151.638 C 279.675 151.955 279.000 151.795 279.000 151.284 C 279.000 150.213 269.034 150.141 268.374 151.206 M 278.000 161.022 C 277.725 161.136 278.351 161.140 279.390 161.029 C 280.766 160.882 281.109 161.273 280.652 162.465 C 280.284 163.424 280.433 163.850 281.011 163.493 C 281.657 163.094 282.000 178.515 282.000 207.972 C 282.000 248.394 281.834 253.126 280.399 253.677 C 279.519 254.015 278.444 253.718 278.011 253.018 C 277.560 252.289 276.682 252.079 275.957 252.526 C 275.075 253.072 274.939 252.908 275.510 251.985 C 276.092 251.043 275.881 250.832 274.779 251.255 C 273.806 251.628 272.164 250.674 270.365 248.690 C 267.842 245.908 267.798 245.763 270.000 247.476 L 272.500 249.421 269.916 246.649 C 267.471 244.026 260.009 241.587 261.422 243.873 C 261.770 244.438 261.054 245.485 259.829 246.200 C 258.603 246.915 258.198 247.368 258.928 247.207 C 259.805 247.014 260.080 247.586 259.738 248.893 C 259.427 250.083 259.800 251.093 260.674 251.428 C 261.473 251.735 261.835 252.459 261.477 253.037 C 261.120 253.615 261.429 254.812 262.164 255.697 C 263.218 256.968 263.507 257.011 263.535 255.904 C 263.555 255.128 264.137 255.520 264.836 256.778 C 265.531 258.031 266.500 258.809 266.989 258.507 C 267.477 258.205 268.283 258.683 268.778 259.569 C 269.274 260.454 269.977 261.139 270.340 261.090 C 270.703 261.040 271.788 261.007 272.750 261.015 C 274.258 261.029 274.292 261.175 273.000 262.076 C 271.874 262.861 272.271 262.970 274.591 262.516 C 276.767 262.090 278.072 262.382 279.002 263.503 C 280.054 264.769 280.492 264.830 281.146 263.797 C 281.601 263.081 281.976 268.636 281.985 276.191 C 281.994 284.151 281.586 290.138 281.011 290.493 C 280.430 290.852 280.286 290.417 280.663 289.436 C 281.190 288.063 280.966 287.941 279.402 288.749 C 277.073 289.950 275.000 289.322 275.000 287.417 C 275.000 286.638 274.523 286.000 273.941 286.000 C 273.359 286.000 273.211 286.563 273.613 287.250 C 274.015 287.938 273.319 287.600 272.067 286.500 C 270.815 285.400 270.175 284.613 270.645 284.750 C 271.115 284.888 271.500 284.438 271.500 283.750 C 271.500 283.063 270.900 282.500 270.167 282.500 C 269.433 282.500 269.171 282.163 269.583 281.750 C 269.996 281.338 269.850 281.000 269.260 281.000 C 268.670 281.000 268.425 280.090 268.716 278.978 C 269.605 275.579 262.313 270.066 260.599 272.840 C 260.158 273.554 253.526 273.666 252.000 272.986 C 251.725 272.863 251.163 272.816 250.750 272.882 C 250.338 272.947 250.000 272.475 250.000 271.833 C 250.000 271.192 249.696 270.971 249.324 271.342 C 248.425 272.242 243.911 267.953 244.594 266.848 C 244.887 266.374 244.410 265.711 243.534 265.375 C 242.468 264.966 242.151 264.099 242.577 262.756 C 242.928 261.653 242.817 260.995 242.332 261.295 C 241.847 261.594 241.494 259.738 241.548 257.170 C 241.601 254.601 241.915 253.175 242.244 254.000 C 242.606 254.907 242.873 254.414 242.921 252.750 C 242.998 250.073 239.751 245.582 238.583 246.750 C 238.263 247.071 238.000 246.808 238.000 246.167 C 238.000 245.525 237.403 245.000 236.674 245.000 C 234.958 245.000 230.774 240.560 231.658 239.676 C 232.029 239.304 231.822 239.000 231.198 239.000 C 230.574 239.000 230.322 238.325 230.638 237.500 C 230.955 236.675 230.787 236.000 230.266 236.000 C 229.708 236.000 229.596 234.162 229.993 231.543 C 230.365 229.092 230.294 227.318 229.835 227.602 C 229.376 227.886 229.000 227.641 229.000 227.059 C 229.000 226.477 229.450 226.000 230.000 226.000 C 230.550 226.000 230.947 225.663 230.882 225.250 C 230.568 223.263 231.115 222.024 232.205 222.250 C 232.867 222.388 233.430 221.836 233.455 221.024 C 233.484 220.077 234.251 220.504 235.599 222.218 C 236.754 223.685 238.891 225.186 240.349 225.551 C 241.807 225.917 243.000 226.604 243.000 227.077 C 243.000 227.550 243.675 227.678 244.500 227.362 C 245.325 227.045 246.000 227.229 246.000 227.770 C 246.000 228.350 247.912 228.539 250.650 228.230 C 253.852 227.869 255.091 228.044 254.629 228.792 C 254.260 229.389 254.530 230.242 255.229 230.689 C 255.928 231.135 256.972 232.357 257.549 233.405 C 258.677 235.453 264.710 236.278 265.789 234.532 C 266.967 232.627 266.621 228.068 265.259 227.546 C 264.497 227.253 264.155 226.558 264.500 226.000 C 264.845 225.442 264.423 224.716 263.563 224.386 C 262.704 224.056 262.000 223.358 262.000 222.834 C 262.000 222.310 262.445 222.157 262.989 222.493 C 263.555 222.843 263.724 222.443 263.384 221.558 C 263.057 220.707 262.393 220.257 261.907 220.558 C 261.421 220.858 261.291 220.406 261.618 219.552 C 261.958 218.667 261.685 218.000 260.982 218.000 C 260.138 218.000 259.945 217.025 260.370 214.901 C 261.498 209.261 255.713 205.216 252.000 209.048 C 251.175 209.899 250.373 212.132 250.218 214.009 C 249.925 217.548 248.048 219.696 246.888 217.819 C 246.523 217.228 245.751 217.036 245.173 217.393 C 244.596 217.750 243.717 217.317 243.222 216.431 C 242.726 215.546 241.911 214.749 241.410 214.660 C 240.910 214.572 240.608 214.176 240.740 213.780 C 240.872 213.384 240.072 212.574 238.962 211.980 C 237.852 211.386 237.208 210.472 237.531 209.950 C 237.854 209.427 237.611 209.000 236.992 209.000 C 236.320 209.000 236.122 208.192 236.500 207.000 C 236.864 205.853 236.680 205.000 236.067 205.000 C 235.480 205.000 235.000 204.073 235.000 202.941 C 235.000 201.648 235.426 201.146 236.146 201.590 C 236.947 202.085 237.099 201.533 236.653 199.753 C 236.195 197.928 236.465 197.035 237.611 196.596 C 238.489 196.259 238.968 195.360 238.676 194.598 C 238.081 193.048 242.266 188.600 243.324 189.658 C 243.696 190.029 244.000 189.782 244.000 189.108 C 244.000 188.434 244.450 188.160 245.000 188.500 C 245.550 188.840 246.000 188.716 246.000 188.226 C 246.000 187.294 247.459 186.943 251.250 186.965 C 256.375 186.995 257.022 187.155 256.358 188.230 C 255.914 188.949 256.259 189.115 257.336 188.701 C 258.251 188.350 259.000 188.446 259.000 188.915 C 259.000 189.383 260.013 190.096 261.250 190.499 C 262.531 190.916 262.854 191.292 262.000 191.373 C 260.917 191.475 261.123 191.954 262.744 193.097 C 263.978 193.967 264.690 194.977 264.327 195.340 C 263.964 195.703 264.192 196.000 264.833 196.000 C 265.475 196.000 265.951 196.338 265.892 196.750 C 265.645 198.463 267.294 201.936 268.114 201.430 C 268.601 201.128 269.000 201.359 269.000 201.941 C 269.000 203.598 271.817 203.183 273.750 201.242 C 275.306 199.679 275.686 197.608 274.988 194.500 C 274.864 193.950 274.816 193.163 274.882 192.750 C 274.947 192.338 274.627 192.000 274.171 192.000 C 273.714 192.000 273.377 191.118 273.421 190.041 C 273.464 188.963 273.232 188.176 272.904 188.291 C 271.724 188.704 269.036 185.750 269.666 184.732 C 270.022 184.155 269.830 183.987 269.235 184.355 C 268.644 184.720 267.284 183.905 266.213 182.543 C 265.142 181.182 263.981 180.353 263.633 180.701 C 263.285 181.049 263.000 180.782 263.000 180.108 C 263.000 179.434 262.550 179.160 262.000 179.500 C 261.450 179.840 261.000 179.566 261.000 178.892 C 261.000 178.218 260.663 178.004 260.250 178.417 C 259.838 178.829 259.478 178.792 259.451 178.333 C 259.424 177.875 259.049 176.466 258.618 175.202 C 258.156 173.846 258.275 172.373 258.909 171.610 C 259.499 170.898 259.687 170.020 259.325 169.658 C 258.963 169.296 259.218 169.000 259.892 169.000 C 260.566 169.000 260.882 168.618 260.593 168.151 C 260.010 167.207 265.065 162.394 266.250 162.765 C 266.663 162.894 267.000 162.564 267.000 162.031 C 267.000 161.499 267.749 161.350 268.664 161.701 C 269.600 162.061 270.073 161.927 269.744 161.395 C 269.404 160.845 271.110 160.526 273.830 160.632 C 276.399 160.731 278.275 160.907 278.000 161.022 M 325.750 187.239 C 326.438 187.291 327.000 187.735 327.000 188.226 C 327.000 188.716 327.450 188.840 328.000 188.500 C 328.550 188.160 329.000 188.584 329.000 189.441 C 329.000 190.845 330.167 191.447 332.250 191.118 C 332.663 191.053 333.000 191.675 333.000 192.500 C 333.000 193.325 333.436 194.000 333.969 194.000 C 334.501 194.000 334.650 194.749 334.299 195.664 C 333.872 196.775 334.045 197.090 334.819 196.612 C 335.575 196.144 335.771 196.434 335.382 197.448 C 335.054 198.302 335.196 199.000 335.697 199.000 C 336.384 199.000 336.714 206.195 336.099 207.750 C 336.044 207.888 336.040 208.297 336.090 208.660 C 336.139 209.023 335.351 209.799 334.340 210.384 C 332.945 211.191 332.863 211.459 334.000 211.493 C 334.825 211.518 334.062 212.400 332.304 213.453 C 330.547 214.506 329.336 215.734 329.613 216.183 C 330.125 217.011 328.613 217.390 326.150 217.052 C 325.407 216.950 325.026 217.234 325.304 217.683 C 325.582 218.132 323.269 218.495 320.165 218.489 C 316.357 218.482 314.030 218.986 313.011 220.036 C 311.289 221.812 310.749 225.000 312.170 225.000 C 312.691 225.000 312.872 225.399 312.570 225.886 C 312.269 226.374 313.030 227.083 314.261 227.462 C 317.609 228.493 327.000 228.627 327.000 227.643 C 327.000 227.172 327.675 227.045 328.500 227.362 C 329.325 227.678 330.000 227.473 330.000 226.906 C 330.000 226.338 330.831 226.015 331.847 226.187 C 332.862 226.359 333.766 226.055 333.855 225.511 C 333.944 224.966 334.576 224.472 335.259 224.413 C 337.166 224.247 338.137 223.765 336.846 223.625 C 336.212 223.556 336.523 222.825 337.538 222.000 C 338.598 221.139 339.064 221.032 338.633 221.750 C 338.127 222.593 338.572 223.000 340.000 223.000 C 341.165 223.000 341.840 223.450 341.500 224.000 C 341.160 224.550 341.344 225.000 341.910 225.000 C 342.475 225.000 342.696 225.629 342.400 226.399 C 342.105 227.168 342.344 228.095 342.932 228.458 C 344.259 229.278 344.340 233.672 343.044 234.473 C 342.518 234.798 342.369 235.798 342.714 236.696 C 343.169 237.882 342.974 238.102 342.000 237.500 C 341.053 236.915 340.827 237.108 341.230 238.158 C 341.566 239.032 340.915 240.217 339.650 241.036 C 338.318 241.899 338.034 242.442 338.904 242.464 C 340.062 242.494 340.046 242.717 338.812 243.741 C 337.989 244.424 337.020 244.687 336.658 244.325 C 336.296 243.963 336.000 244.218 336.000 244.892 C 336.000 245.566 335.550 245.840 335.000 245.500 C 334.450 245.160 334.000 245.385 334.000 246.000 C 334.000 246.615 333.581 246.859 333.069 246.543 C 330.903 245.204 329.516 252.985 331.362 256.118 C 331.891 257.014 331.952 258.574 331.500 259.618 C 331.052 260.653 330.775 262.063 330.886 262.750 C 330.997 263.438 330.591 264.000 329.985 264.000 C 329.378 264.000 329.109 264.368 329.387 264.818 C 329.665 265.268 329.041 266.250 328.000 267.000 C 326.959 267.750 326.335 268.732 326.613 269.182 C 326.891 269.632 326.465 270.000 325.666 270.000 C 324.867 270.000 323.867 270.788 323.443 271.750 C 322.917 272.945 322.645 273.055 322.586 272.096 C 322.515 270.944 322.275 270.964 321.241 272.210 C 319.905 273.820 312.000 274.379 312.000 272.864 C 312.000 272.389 311.100 272.000 310.000 272.000 C 308.900 272.000 308.000 272.450 308.000 273.000 C 308.000 273.550 307.438 273.888 306.750 273.750 C 306.063 273.613 305.613 274.063 305.750 274.750 C 305.888 275.438 305.520 276.000 304.933 276.000 C 304.320 276.000 304.136 276.853 304.500 278.000 C 304.878 279.192 304.680 280.000 304.008 280.000 C 303.389 280.000 303.160 280.450 303.500 281.000 C 303.840 281.550 303.566 282.000 302.892 282.000 C 302.218 282.000 301.919 282.252 302.227 282.561 C 302.917 283.251 297.792 288.559 296.750 288.234 C 296.338 288.105 296.000 288.408 296.000 288.906 C 296.000 289.405 295.074 289.571 293.943 289.275 C 291.978 288.761 291.907 288.201 292.343 276.619 C 292.928 261.098 292.768 261.704 296.096 262.369 C 297.616 262.673 299.004 262.531 299.180 262.053 C 299.356 261.574 300.400 261.029 301.500 260.842 C 302.600 260.654 304.273 259.600 305.217 258.500 C 306.538 256.961 306.946 256.846 306.989 258.000 C 307.052 259.690 310.940 255.255 310.978 253.450 C 310.990 252.873 311.535 251.865 312.190 251.210 C 314.025 249.375 314.015 247.014 312.163 245.173 C 309.776 242.799 305.800 243.043 304.496 245.643 C 303.905 246.822 302.764 248.497 301.961 249.365 C 300.653 250.777 300.605 250.733 301.500 248.939 C 302.050 247.837 301.394 248.312 300.042 249.995 C 298.690 251.677 297.017 252.837 296.324 252.571 C 295.631 252.305 294.798 252.518 294.473 253.044 C 294.148 253.570 293.121 253.964 292.191 253.921 C 291.261 253.878 290.950 253.653 291.500 253.422 C 292.140 253.153 292.398 243.769 292.216 227.331 C 292.002 207.885 292.230 201.476 293.159 200.902 C 293.855 200.471 294.858 200.792 295.481 201.643 C 296.083 202.467 297.025 202.997 297.573 202.821 C 298.121 202.644 299.930 204.020 301.593 205.877 C 304.891 209.561 308.601 210.399 311.000 208.000 C 313.277 205.723 312.804 202.759 309.750 200.161 C 308.238 198.875 307.000 197.326 307.000 196.720 C 307.000 196.114 307.678 196.491 308.506 197.559 C 309.915 199.375 309.949 199.324 309.031 196.750 C 308.367 194.890 308.384 194.000 309.084 194.000 C 309.653 194.000 309.877 193.610 309.583 193.134 C 309.288 192.657 310.041 191.420 311.256 190.384 C 312.733 189.125 313.140 189.013 312.483 190.047 C 311.877 191.001 312.124 190.921 313.126 189.840 C 314.020 188.875 315.033 188.366 315.376 188.709 C 315.719 189.052 316.000 188.822 316.000 188.198 C 316.000 187.574 316.629 187.304 317.399 187.600 C 318.168 187.895 319.119 187.616 319.512 186.981 C 319.922 186.317 321.135 186.106 322.363 186.485 C 323.538 186.848 325.063 187.187 325.750 187.239 M 303.750 161.031 C 303.888 161.152 304.450 161.363 305.000 161.500 C 306.779 161.945 307.028 162.246 305.750 162.410 C 305.063 162.499 305.625 163.193 307.000 163.954 C 308.375 164.715 309.682 165.149 309.905 164.919 C 310.127 164.689 310.440 165.388 310.599 166.473 C 310.758 167.558 311.567 168.941 312.396 169.548 C 313.226 170.154 313.728 171.517 313.512 172.575 C 312.128 179.376 311.867 180.036 310.819 179.388 C 310.202 179.007 309.107 179.501 308.387 180.486 C 307.666 181.471 306.047 182.791 304.788 183.418 C 303.530 184.046 302.500 185.108 302.500 185.780 C 302.500 186.451 302.050 187.068 301.500 187.151 C 299.902 187.392 297.900 190.497 299.331 190.515 C 300.125 190.526 300.086 190.794 299.206 191.351 C 298.462 191.823 297.294 191.659 296.456 190.964 C 295.655 190.299 295.000 190.090 295.000 190.500 C 295.000 190.910 294.396 190.744 293.658 190.131 C 292.920 189.519 292.132 189.203 291.908 189.430 C 291.684 189.656 291.725 183.802 292.000 176.419 C 292.275 169.036 292.136 162.997 291.691 162.998 C 291.246 162.999 291.165 162.543 291.510 161.984 C 291.856 161.425 292.557 161.226 293.069 161.543 C 293.581 161.859 294.000 161.742 294.000 161.283 C 294.000 160.586 302.975 160.355 303.750 161.031 "/></g>
<g fill="#BCBCBEFE" stroke="#BCBCBEFE">
<path d="M 250.165 366.733 L 250.500 388.500 253.709 395.275 C 257.433 403.137 264.606 410.654 271.455 413.874 C 275.907 415.967 276.227 415.986 279.636 414.368 C 285.791 411.448 293.442 403.575 296.846 396.661 C 300.912 388.401 302.217 378.771 301.812 360.000 L 301.500 345.500 275.665 345.233 L 249.831 344.966 250.165 366.733 "/></g>
<g fill="#FECA02FE" stroke="#FECA02FE">
<path d="M 268.025 162.711 C 263.254 165.168 258.923 171.663 259.665 175.250 C 259.977 176.763 260.900 178.000 261.715 178.000 C 263.727 178.000 275.277 189.742 274.501 190.999 C 274.160 191.549 274.359 192.000 274.941 192.000 C 276.131 192.000 276.372 199.889 275.235 201.615 C 274.831 202.229 273.475 203.050 272.222 203.441 C 270.438 203.998 269.301 203.463 266.972 200.970 C 265.338 199.220 264.000 197.245 264.000 196.581 C 264.000 195.185 259.798 191.171 255.608 188.566 C 253.149 187.037 252.147 186.939 248.900 187.912 C 236.914 191.503 233.365 205.254 242.196 213.888 C 245.451 217.070 248.883 217.989 249.148 215.750 C 249.229 215.063 249.388 213.825 249.500 213.000 C 249.612 212.175 249.771 210.785 249.852 209.911 C 249.984 208.488 253.828 206.000 255.894 206.000 C 258.064 206.000 260.902 209.968 261.298 213.558 C 261.739 217.548 264.316 224.405 266.281 226.815 C 267.913 228.817 267.863 233.290 266.187 235.250 C 263.700 238.158 259.856 237.425 256.475 233.397 C 254.055 230.515 252.636 229.734 249.375 229.491 C 244.611 229.135 236.137 225.521 235.368 223.516 C 234.444 221.108 232.064 223.050 230.972 227.103 C 228.950 234.612 232.619 242.302 239.863 245.739 L 243.257 247.350 242.677 253.561 C 242.194 258.727 242.467 260.506 244.298 264.133 C 245.509 266.531 247.510 268.985 248.744 269.586 C 249.978 270.187 250.691 270.976 250.327 271.339 C 249.577 272.089 249.903 272.125 259.500 272.342 L 266.500 272.500 269.000 277.578 C 272.007 283.686 275.895 288.393 278.264 288.794 C 280.257 289.131 280.277 288.973 280.011 274.505 C 279.818 264.023 279.398 263.043 275.088 263.015 C 271.388 262.992 264.250 258.328 260.958 253.783 C 257.522 249.040 257.377 248.022 259.750 245.296 C 263.574 240.904 266.403 241.612 271.639 248.269 C 272.713 249.634 275.034 251.068 276.796 251.455 L 280.000 252.159 280.000 207.079 C 280.000 169.497 279.771 162.000 278.625 162.000 C 277.869 162.000 275.956 161.757 274.375 161.461 C 272.617 161.131 270.150 161.617 268.025 162.711 "/></g>
<g fill="#FECA02FE" stroke="#FECA02FE">
<path d="M 315.952 189.397 C 313.504 190.696 310.836 192.914 310.025 194.326 C 308.666 196.691 308.725 197.078 310.775 199.261 C 315.918 204.735 311.199 212.706 304.781 209.387 C 303.251 208.596 301.997 207.623 301.993 207.224 C 301.982 206.057 295.532 202.000 293.688 202.000 C 292.149 202.000 292.000 204.206 292.000 227.000 C 292.000 249.454 292.166 252.000 293.632 252.000 C 295.956 252.000 301.834 248.179 303.073 245.863 C 304.583 243.042 308.597 241.731 311.044 243.260 C 313.189 244.599 314.565 247.624 314.100 249.977 C 313.077 255.154 301.181 264.000 295.245 264.000 C 293.945 264.000 293.141 264.419 293.457 264.931 C 293.774 265.443 293.575 266.144 293.016 266.490 C 292.434 266.850 292.000 271.528 292.000 277.442 C 292.000 286.775 292.184 287.815 293.916 288.268 C 296.616 288.974 301.600 283.531 303.583 277.711 C 305.389 272.411 306.595 271.814 314.500 272.304 C 318.259 272.537 320.241 272.107 322.486 270.571 C 329.823 265.550 331.137 262.342 329.566 253.279 C 328.909 249.492 329.115 248.798 331.563 246.529 C 333.064 245.138 334.708 244.000 335.217 244.000 C 336.527 244.000 338.251 242.054 340.531 238.000 C 342.629 234.271 342.556 228.287 340.368 224.585 C 339.263 222.716 339.169 222.722 336.460 224.853 C 330.382 229.634 317.193 231.222 312.736 227.709 C 310.185 225.698 309.780 222.493 311.768 220.038 C 313.288 218.162 314.696 217.762 320.427 217.580 C 327.007 217.372 327.414 217.210 330.987 213.380 C 335.898 208.115 336.747 203.606 334.021 197.278 C 331.890 192.334 327.259 188.277 322.827 187.473 C 321.448 187.223 318.488 188.052 315.952 189.397 "/></g>
<g fill="#808082FE" stroke="#808082FE">
<path d="M 301.827 359.653 C 302.250 378.565 300.931 388.364 296.846 396.661 C 293.515 403.428 285.557 411.701 280.022 414.151 C 278.360 414.886 277.000 415.796 277.000 416.172 C 277.000 417.883 287.934 418.133 294.066 416.562 C 305.782 413.560 314.141 406.350 319.723 394.430 C 322.450 388.607 322.506 388.107 322.835 366.750 L 323.169 345.000 312.335 344.999 L 301.500 344.997 301.827 359.653 "/></g>
<g fill="#FEFEFEFE" stroke="#FEFEFEFE">
<path d="M 229.500 122.384 C 216.062 128.740 205.648 147.617 210.454 156.910 C 214.813 165.341 226.216 163.731 236.995 153.162 C 248.242 142.136 251.321 125.803 242.966 121.483 C 238.942 119.402 235.290 119.646 229.500 122.384 "/></g>
<g fill="#3C2210FE" stroke="#3C2210FE">
<path d="M 100.000 198.661 C 95.652 200.311 94.568 206.884 98.223 209.443 C 100.017 210.700 103.635 211.000 117.000 211.000 C 130.365 211.000 133.983 210.700 135.777 209.443 C 138.349 207.642 138.730 203.382 136.583 200.441 C 135.288 198.668 133.709 198.482 118.333 198.296 C 109.075 198.184 100.825 198.348 100.000 198.661 "/></g>
<g fill="#3C2210FE" stroke="#3C2210FE">
<path d="M 282.000 16.000 C 280.156 17.844 280.000 19.333 280.000 35.045 C 280.000 51.924 280.025 52.116 282.517 54.608 C 285.367 57.458 288.325 57.185 291.250 53.802 C 292.763 52.053 293.000 49.563 293.000 35.441 C 293.000 19.649 292.921 19.018 290.635 16.552 C 287.794 13.486 284.711 13.289 282.000 16.000 "/></g>
<g fill="#3C2210FE" stroke="#3C2210FE">
<path d="M 438.280 199.020 C 436.001 199.937 434.758 203.046 435.333 206.388 C 436.031 210.444 438.544 211.000 456.191 211.000 C 471.667 211.000 473.159 210.841 475.000 209.000 C 478.294 205.706 477.554 201.381 473.316 199.150 C 470.707 197.777 441.637 197.669 438.280 199.020 "/></g>
<g fill="#3C2210FE" stroke="#3C2210FE">
<path d="M 374.652 40.491 C 372.699 42.444 363.000 59.406 363.000 60.869 C 363.000 61.491 362.630 62.000 362.177 62.000 C 361.725 62.000 360.367 63.976 359.161 66.392 C 355.972 72.776 357.951 77.000 364.130 77.000 C 366.267 77.000 371.267 72.241 370.475 70.960 C 370.207 70.526 370.366 70.020 370.830 69.835 C 371.853 69.428 382.192 52.000 381.410 52.000 C 381.106 52.000 381.564 51.294 382.427 50.430 C 386.663 46.194 384.537 39.000 379.048 39.000 C 377.450 39.000 375.472 39.671 374.652 40.491 "/></g>
<g fill="#3C2210FE" stroke="#3C2210FE">
<path d="M 147.000 277.786 C 145.625 278.710 144.225 279.850 143.888 280.319 C 143.552 280.787 142.877 281.171 142.388 281.170 C 141.900 281.170 137.075 283.675 131.667 286.737 C 120.493 293.064 118.584 295.620 121.801 299.945 C 122.846 301.350 124.689 302.647 125.898 302.826 C 128.231 303.172 155.500 288.097 157.750 285.217 C 162.345 279.338 153.641 273.321 147.000 277.786 "/></g>
<g fill="#3C2210FE" stroke="#3C2210FE">
<path d="M 189.655 40.829 C 188.745 41.835 188.000 43.501 188.000 44.531 C 188.000 46.414 201.983 71.977 204.802 75.250 C 208.094 79.071 215.000 76.199 215.000 71.009 C 215.000 68.614 210.530 60.079 208.587 58.765 C 207.989 58.361 207.830 58.024 208.233 58.015 C 209.069 57.998 200.640 43.409 198.258 40.750 C 196.216 38.471 191.752 38.511 189.655 40.829 "/></g>
<g fill="#3C2210FE" stroke="#3C2210FE">
<path d="M 430.060 114.557 C 422.118 119.227 415.423 123.243 415.183 123.483 C 414.943 123.723 414.590 125.264 414.399 126.907 C 414.134 129.182 414.674 130.385 416.660 131.948 C 418.096 133.076 419.718 134.000 420.266 134.000 C 422.430 134.000 439.000 123.762 439.000 122.425 C 439.000 121.641 438.475 121.000 437.833 121.000 C 437.192 121.000 437.003 120.663 437.415 120.252 C 437.827 119.840 438.721 120.266 439.403 121.199 C 440.543 122.757 441.078 122.633 446.027 119.662 C 450.742 116.831 451.455 115.979 451.763 112.812 C 452.043 109.943 451.644 108.864 449.835 107.597 C 448.581 106.719 446.868 106.015 446.027 106.034 C 445.187 106.053 438.002 109.888 430.060 114.557 "/></g>
<g fill="#3C2210FE" stroke="#3C2210FE">
<path d="M 123.167 107.750 C 121.131 109.485 120.653 110.850 120.882 114.272 C 121.004 116.110 129.722 122.290 131.041 121.474 C 131.453 121.220 132.018 121.571 132.296 122.256 C 132.573 122.940 135.869 125.075 139.620 127.000 C 143.370 128.925 147.018 131.033 147.725 131.684 C 150.305 134.059 153.174 134.260 155.870 132.255 C 159.423 129.613 159.774 126.273 156.790 123.507 C 153.298 120.268 128.168 106.000 125.957 106.000 C 125.553 106.000 124.297 106.788 123.167 107.750 "/></g>
<g fill="#3C2210FE" stroke="#3C2210FE">
<path d="M 415.722 278.011 C 413.850 280.199 413.391 284.000 415.000 284.000 C 415.550 284.000 415.888 284.485 415.750 285.078 C 415.422 286.490 443.811 303.000 446.568 303.000 C 450.597 303.000 453.566 296.892 451.235 293.399 C 450.188 291.831 442.003 286.821 441.985 287.737 C 441.976 288.157 441.639 288.013 441.235 287.418 C 440.102 285.749 428.246 279.087 427.585 279.748 C 427.263 280.070 427.000 279.733 427.000 279.000 C 427.000 278.267 426.721 277.945 426.381 278.286 C 426.040 278.626 425.108 278.251 424.310 277.452 C 422.227 275.370 417.734 275.662 415.722 278.011 "/></g>
<g fill="#FECA02FE" stroke="#FECA02FE">
<path d="M 296.855 161.804 C 293.383 162.094 293.180 162.314 292.556 166.477 C 292.195 168.880 292.010 174.545 292.144 179.065 C 292.340 185.670 292.764 187.634 294.304 189.068 C 296.108 190.749 299.000 190.713 299.000 189.011 C 299.000 187.711 307.073 180.074 309.859 178.739 C 314.702 176.417 313.962 171.028 308.026 165.403 C 303.948 161.539 303.144 161.279 296.855 161.804 "/></g>
<g fill="#FEFEFEFE" stroke="#FEFEFEFE">
<path d="M 236.135 162.703 C 233.136 165.149 232.748 170.390 235.537 170.791 C 238.058 171.153 241.852 167.282 242.224 163.966 C 242.577 160.819 239.282 160.136 236.135 162.703 "/></g>
<g fill="#FAB612FE" stroke="#FAB612FE">
<path d="M 280.239 230.500 C 280.090 243.882 279.622 252.057 279.000 252.150 C 278.450 252.233 278.563 252.345 279.250 252.400 C 280.215 252.477 280.498 247.542 280.489 230.750 L 280.478 209.000 280.239 230.500 "/></g>
<g fill="#3C2210FE" stroke="#3C2210FE">
<path d="M 231.750 165.333 C 230.534 168.301 230.882 170.662 232.750 172.128 C 234.322 173.361 234.366 173.328 233.178 171.811 C 232.451 170.882 232.001 168.632 232.178 166.812 C 232.391 164.623 232.246 164.122 231.750 165.333 "/></g>
<g fill="#3C2210FE" stroke="#3C2210FE">
<path d="M 218.000 128.942 L 214.500 132.562 218.000 128.942 L 221.500 125.323 218.000 128.942 "/></g>
<g fill="#FAB612FE" stroke="#FAB612FE">
<path d="M 254.822 157.828 C 253.349 159.298 251.999 161.037 251.822 161.694 C 251.645 162.351 252.850 161.149 254.500 159.023 C 257.203 155.540 257.235 155.421 254.822 157.828 "/></g>
<g fill="#FAB612FE" stroke="#FAB612FE">
<path d="M 222.864 246.635 C 223.460 247.810 224.779 249.385 225.795 250.135 C 226.810 250.886 226.323 249.925 224.711 248.000 C 223.099 246.075 222.268 245.461 222.864 246.635 "/></g>
<g fill="#FAB612FE" stroke="#FAB612FE">
<path d="M 388.750 224.589 C 388.338 224.998 388.060 226.721 388.133 228.417 C 388.255 231.254 388.314 231.194 388.883 227.672 C 389.222 225.567 389.163 224.179 388.750 224.589 "/></g>
<g fill="#FAB612FE" stroke="#FAB612FE">
<path d="M 210.484 127.137 L 207.500 130.372 210.690 127.936 C 212.445 126.596 213.788 125.141 213.674 124.701 C 213.561 124.262 212.125 125.358 210.484 127.137 "/></g>
<g fill="#FAB612FE" stroke="#FAB612FE">
<path d="M 232.629 110.792 C 229.775 112.490 229.780 112.492 233.528 111.050 C 235.602 110.252 236.894 109.484 236.399 109.342 C 235.905 109.201 234.208 109.853 232.629 110.792 "/></g>
<g fill="#6A4602FE" stroke="#6A4602FE">
<path d="M 268.500 184.500 L 272.000 188.000 268.500 184.500 L 265.000 181.000 268.500 184.500 "/></g>
<g fill="#6A4602FE" stroke="#6A4602FE">
<path d="M 210.500 126.435 L 207.500 129.564 210.500 126.435 L 213.500 123.305 210.500 126.435 "/></g>
</svg>
